<?xml version="1.0" standalone="no"?>
<!DOCTYPE svg PUBLIC "-//W3C//DTD SVG 20010904//EN"
 "http://www.w3.org/TR/2001/REC-SVG-20010904/DTD/svg10.dtd">
<svg version="1.0" xmlns="http://www.w3.org/2000/svg"
 width="736.000000pt" height="736.000000pt" viewBox="0 0 736.000000 736.000000"
 preserveAspectRatio="xMidYMid meet">

<g transform="translate(0.000000,736.000000) scale(0.100000,-0.100000)"
fill="#000000" stroke="none">
<path d="M1305 7323 c-11 -67 -27 -105 -66 -166 -67 -103 -74 -179 -28 -272
45 -91 149 -148 290 -162 63 -5 71 -4 125 27 151 85 183 99 242 111 86 16 156
7 292 -41 63 -22 128 -40 144 -40 84 0 169 57 213 144 68 133 5 309 -146 405
l-48 31 -506 0 -506 0 -6 -37z"/>
<path d="M2789 7333 c-20 -51 -22 -136 -5 -194 23 -81 64 -131 164 -198 137
-91 153 -116 197 -298 37 -156 82 -220 183 -265 141 -63 310 -33 476 86 101
72 159 143 186 225 35 109 27 156 -42 262 -49 74 -65 89 -120 119 -88 49 -160
123 -187 194 -11 31 -21 66 -21 76 0 20 -9 20 -410 20 l-410 0 -11 -27z"/>
<path d="M4170 7287 c0 -84 14 -132 84 -284 33 -72 53 -133 67 -210 12 -59 33
-132 47 -163 35 -70 112 -147 187 -185 56 -28 68 -30 170 -30 133 0 156 9 205
84 47 70 85 90 177 91 54 0 89 -6 140 -26 145 -55 157 -57 215 -40 29 9 84 38
121 66 173 128 224 327 162 630 -13 66 -27 125 -30 130 -4 6 -284 10 -776 10
l-769 0 0 -73z"/>
<path d="M6020 7354 c0 -4 18 -47 40 -96 58 -128 70 -184 74 -350 3 -137 4
-147 32 -197 15 -29 48 -70 71 -91 47 -41 273 -145 339 -156 76 -12 144 11
255 86 157 105 212 158 255 245 33 66 36 80 31 126 -12 103 -72 169 -243 268
-56 33 -129 85 -162 116 l-60 55 -316 0 c-174 0 -316 -3 -316 -6z"/>
<path d="M339 6928 c-98 -35 -175 -85 -261 -170 l-78 -77 0 -642 0 -643 31 30
c17 16 53 67 81 112 55 92 92 122 149 122 20 0 108 -14 195 -30 275 -52 374
-50 499 9 79 37 135 84 190 156 93 124 137 306 115 480 -34 273 -164 437 -465
588 -132 67 -177 80 -290 84 -85 3 -110 0 -166 -19z"/>
<path d="M7318 6600 c-20 -36 -62 -129 -93 -208 -72 -178 -107 -220 -212 -251
-37 -11 -101 -29 -141 -41 -82 -24 -139 -67 -175 -134 -18 -34 -22 -57 -22
-131 1 -131 34 -195 175 -335 136 -137 206 -175 319 -175 66 0 83 4 130 30 29
16 55 34 57 40 2 5 3 294 2 640 l-3 630 -37 -65z"/>
<path d="M2235 6566 c-63 -20 -104 -45 -157 -94 -80 -75 -91 -100 -83 -188 6
-64 4 -80 -15 -119 -34 -70 -108 -120 -242 -164 -110 -36 -143 -76 -174 -208
-52 -219 41 -405 299 -599 193 -146 279 -174 534 -175 210 -1 254 11 404 110
190 127 262 222 329 436 31 101 45 342 25 452 -27 158 -77 211 -288 312 -88
42 -167 88 -207 120 -85 69 -138 100 -202 117 -65 17 -169 17 -223 0z"/>
<path d="M5381 6324 c-109 -29 -208 -106 -264 -206 -26 -46 -27 -48 -24 -220
l2 -173 -48 -139 c-61 -176 -77 -244 -77 -331 0 -123 44 -261 92 -286 12 -6
51 -15 88 -19 50 -5 90 -20 170 -59 104 -52 105 -53 185 -49 133 7 211 67 261
203 81 222 146 299 344 412 144 83 193 126 228 202 21 45 24 64 20 125 -8 125
-74 236 -190 322 -61 44 -253 145 -348 182 -133 52 -323 67 -439 36z"/>
<path d="M3905 5996 c-65 -20 -94 -45 -177 -149 -91 -114 -113 -153 -126 -226
-25 -137 38 -204 248 -266 210 -62 271 -105 309 -221 30 -92 46 -120 105 -182
86 -91 125 -101 222 -52 67 33 165 125 190 179 10 22 17 59 17 94 -1 78 -48
171 -146 293 -88 108 -109 150 -146 283 -16 57 -39 115 -54 134 -43 57 -126
92 -257 111 -133 19 -132 19 -185 2z"/>
<path d="M7 5124 c-4 -4 -7 -330 -7 -724 l0 -717 27 -13 c16 -7 60 -15 99 -18
64 -4 79 -1 165 33 147 59 221 100 282 155 99 91 122 182 71 290 -19 42 -58
87 -164 190 -191 187 -212 232 -190 409 10 77 10 111 1 162 -18 91 -68 189
-109 213 -35 20 -161 34 -175 20z"/>
<path d="M7245 5092 c-99 -33 -143 -67 -181 -134 -25 -46 -29 -66 -32 -153 -3
-82 2 -127 27 -252 17 -84 31 -169 31 -190 0 -21 -12 -101 -26 -178 -26 -135
-26 -142 -11 -195 23 -78 79 -145 182 -218 50 -35 98 -68 108 -73 16 -9 17 27
17 706 0 674 -1 715 -17 715 -10 0 -54 -13 -98 -28z"/>
<path d="M1310 5076 c-121 -47 -179 -66 -208 -66 -50 0 -99 -27 -124 -69 -21
-33 -23 -48 -23 -176 -1 -137 -2 -141 -34 -210 -29 -60 -33 -77 -29 -131 9
-140 124 -224 308 -224 73 0 100 12 186 86 82 70 153 98 259 102 61 3 111 -1
152 -12 33 -9 88 -16 121 -16 120 0 207 96 207 230 0 159 -118 270 -344 321
-122 28 -169 48 -251 109 -98 73 -145 85 -220 56z"/>
<path d="M2909 4926 c-144 -41 -312 -196 -374 -342 -9 -21 -23 -84 -31 -139
-8 -55 -19 -116 -24 -135 -17 -62 -65 -125 -153 -198 -113 -95 -142 -150 -141
-269 0 -73 4 -90 37 -155 66 -134 174 -214 377 -282 148 -49 264 -63 393 -47
201 25 298 83 401 239 142 216 183 249 406 327 211 73 299 132 350 232 22 42
25 61 25 158 0 102 -2 114 -28 161 -48 86 -174 165 -294 184 -76 13 -101 5
-238 -72 -94 -53 -119 -63 -170 -66 -50 -3 -66 0 -95 20 -63 43 -89 93 -105
201 -15 109 -27 134 -81 168 -31 19 -54 24 -123 26 -50 1 -105 -3 -132 -11z"/>
<path d="M6410 4787 c-75 -22 -84 -22 -308 -15 -85 3 -90 2 -128 -27 -47 -35
-58 -48 -85 -99 -19 -35 -21 -52 -17 -140 6 -133 20 -161 119 -238 83 -64 138
-134 165 -208 10 -28 19 -97 23 -185 8 -160 19 -189 83 -235 166 -120 384 -3
428 229 5 29 10 96 10 147 0 114 14 181 52 258 16 32 32 82 35 111 6 57 -3 80
-70 179 -22 32 -50 86 -63 119 -29 73 -56 104 -103 117 -47 13 -53 12 -141
-13z"/>
<path d="M5045 4449 c-246 -60 -396 -206 -506 -489 -102 -263 -90 -436 40
-610 118 -158 249 -230 550 -305 185 -46 225 -77 280 -211 65 -158 93 -199
166 -237 31 -16 58 -21 120 -22 72 0 88 4 149 34 86 42 168 122 246 241 70
107 94 174 94 256 -1 125 -74 213 -248 299 -67 33 -119 66 -131 82 -22 31 -22
33 -16 373 3 193 -6 250 -57 344 -61 113 -204 218 -343 251 -89 21 -245 18
-344 -6z"/>
<path d="M1479 3966 c-78 -31 -121 -60 -162 -106 -46 -50 -57 -92 -57 -216 0
-147 -17 -177 -173 -302 -158 -127 -182 -166 -182 -297 0 -99 14 -146 66 -221
38 -56 94 -94 203 -138 176 -71 206 -101 298 -297 65 -137 108 -188 195 -231
55 -27 80 -33 152 -36 157 -7 274 48 427 203 137 138 173 209 181 352 7 122
-1 141 -107 249 -85 86 -98 94 -209 129 -127 40 -203 112 -257 242 -32 78 -32
169 1 288 45 162 32 257 -47 332 -79 76 -215 96 -329 49z"/>
<path d="M0 2590 l0 -910 25 -6 c69 -17 137 0 279 71 l139 70 146 6 c96 4 161
12 190 23 91 34 172 118 206 215 45 128 -18 387 -115 475 -22 20 -88 60 -148
90 -131 66 -198 117 -259 199 -66 89 -91 153 -124 312 -37 175 -72 252 -137
300 -54 39 -121 65 -169 65 l-33 0 0 -910z"/>
<path d="M7219 3481 c-68 -27 -133 -75 -172 -128 -109 -151 -131 -296 -81
-554 34 -181 34 -282 -1 -424 -47 -189 -30 -241 129 -399 57 -55 116 -123 131
-151 43 -75 75 -115 107 -131 l28 -15 0 911 0 910 -47 0 c-27 -1 -69 -9 -94
-19z"/>
<path d="M3653 3391 c-65 -31 -108 -70 -237 -214 -44 -50 -109 -109 -150 -136
-40 -27 -87 -66 -106 -87 -116 -133 -133 -349 -38 -490 41 -60 73 -83 123 -90
74 -10 85 -14 125 -50 55 -50 81 -124 88 -249 5 -114 21 -154 77 -203 104 -92
275 -133 413 -101 133 32 393 200 493 321 64 77 87 124 139 283 36 107 44 147
48 227 4 87 1 108 -28 205 -59 200 -139 317 -297 429 -120 86 -350 169 -499
179 -85 6 -92 5 -151 -24z"/>
<path d="M6060 2430 c-61 -10 -106 -30 -216 -96 -52 -31 -118 -65 -146 -76
-77 -30 -209 -35 -338 -13 -125 22 -267 22 -333 1 -103 -31 -180 -117 -219
-240 -25 -77 -19 -143 17 -221 37 -77 142 -187 212 -221 53 -27 56 -27 193
-20 94 5 153 3 182 -5 59 -15 112 -71 132 -139 21 -70 20 -78 -9 -162 -45
-129 -30 -194 62 -264 76 -58 144 -78 268 -78 122 -1 198 18 308 77 84 44 129
89 205 202 97 145 121 160 339 216 66 17 92 29 128 61 114 100 143 288 71 450
-55 125 -222 304 -376 403 -115 75 -296 136 -395 134 -22 -1 -60 -5 -85 -9z"/>
<path d="M2774 2077 c-134 -52 -191 -84 -234 -133 -46 -53 -63 -100 -56 -151
9 -69 41 -119 150 -232 155 -160 161 -177 141 -406 -6 -79 -4 -98 15 -155 25
-75 42 -97 87 -116 63 -27 215 -9 303 36 107 55 142 187 104 396 -22 121 -20
242 5 329 52 174 17 251 -178 398 -120 90 -175 96 -337 34z"/>
<path d="M1687 1800 c-56 -10 -144 -51 -186 -86 -18 -15 -44 -61 -70 -122 -50
-119 -102 -182 -251 -310 -58 -49 -121 -112 -141 -138 -74 -99 -121 -219 -122
-313 -1 -48 1 -56 31 -80 93 -75 124 -108 161 -170 68 -115 135 -161 243 -169
103 -7 156 17 288 131 50 43 116 80 200 109 44 16 94 21 250 27 184 7 198 9
246 34 126 64 188 228 150 391 -45 191 -256 488 -428 602 -117 78 -258 114
-371 94z"/>
<path d="M494 1606 c-23 -7 -82 -35 -130 -62 -167 -90 -201 -104 -283 -116
l-81 -12 0 -481 0 -481 38 -18 c20 -10 67 -21 105 -24 60 -4 73 -2 130 26 78
38 170 124 185 172 6 19 16 76 22 125 21 174 95 281 257 378 141 83 179 138
171 250 -7 105 -64 188 -157 230 -58 26 -197 33 -257 13z"/>
<path d="M4475 1474 c-104 -27 -100 -26 -330 -8 -61 4 -75 2 -107 -18 -21 -13
-60 -50 -88 -83 -28 -33 -76 -78 -108 -100 -75 -53 -99 -99 -84 -164 6 -25 32
-84 58 -130 45 -79 49 -92 60 -193 14 -132 38 -176 123 -220 84 -44 186 -35
299 27 58 32 71 49 112 149 38 91 112 178 187 218 26 14 93 38 147 52 119 32
158 54 190 109 84 146 9 312 -168 371 -70 23 -173 19 -291 -10z"/>
<path d="M7310 1408 c-72 -20 -97 -50 -163 -198 -14 -30 -45 -81 -71 -113 -86
-110 -75 -158 64 -302 80 -82 100 -110 115 -155 24 -74 58 -141 84 -164 l21
-19 0 481 c0 265 -3 482 -7 481 -5 0 -24 -5 -43 -11z"/>
<path d="M3373 596 c-61 -20 -127 -61 -147 -91 -9 -14 -26 -67 -37 -117 -11
-50 -24 -98 -29 -108 -20 -37 -94 -92 -188 -139 -64 -32 -111 -64 -135 -90
-20 -23 -37 -43 -37 -46 0 -3 184 -5 409 -5 l409 0 4 63 c3 51 13 83 53 163
43 88 49 106 49 166 1 58 -3 72 -29 109 -17 24 -52 57 -78 73 -40 25 -60 30
-125 33 -47 2 -93 -3 -119 -11z"/>
<path d="M4775 531 c-154 -46 -272 -121 -401 -253 -84 -86 -194 -236 -194
-265 0 -10 160 -13 766 -13 l765 0 -6 23 c-3 12 -22 54 -41 93 -56 118 -294
339 -412 384 -125 47 -369 63 -477 31z"/>
<path d="M6265 536 c-78 -24 -185 -88 -228 -136 -71 -79 -85 -177 -46 -322
l21 -78 320 0 c176 0 318 3 316 8 -30 57 -41 100 -48 186 -9 112 -31 179 -86
262 -47 70 -86 94 -155 93 -30 0 -72 -6 -94 -13z"/>
<path d="M1745 293 c-11 -2 -56 -13 -99 -24 -44 -10 -112 -19 -151 -19 -58 0
-78 -4 -105 -22 -45 -31 -71 -86 -78 -163 l-5 -65 503 0 c277 0 501 2 499 5
-3 2 -47 21 -99 41 -134 51 -145 58 -232 141 -102 97 -159 123 -233 106z"/>
</g>
</svg>
